# xmcd
#
# Track frame offsets:
#	150
#	10600
#	23045
#	37340
#	46490
#	59370
#	72140
#	83922
#	100790
#	116412
#	130282
#	142097
#	159285
#	173720
#	185065
#	197837
#	209817
#	225542
#	243627
#	258312
#	284627
#	298990
#	310057
#	335985
#	345837
#
# Disc length: 4617 seconds
#
# Revision: 3
# Processed by: cddbd v1.4PL0 Copyright (c) Steve Scherf et al.
# Submitted via: Gronk 1.4
#
DISCID=81120719
DTITLE=Jimmy Rushing - Rushing Lullabies
DYEAR=1900
DGENRE=blues
TTITLE0=I'm Coming Virginia
TTITLE1=Knock Me A Kiss
TTITLE2=Harvard Blues
TTITLE3=Mister Five By Five
TTITLE4=Trav'lin' Light
TTITLE5=June Night
TTITLE6=It's A Sin To Tell A Lie
TTITLE7=Rosalie
TTITLE8=Jimmy's Blues
TTITLE9=Someday Sweetheart
TTITLE10=When You're Smiling
TTITLE11=Somebody Stole My Gal
TTITLE12=You Can't Run Around Blues
TTITLE13=Say You Don't Mean It
TTITLE14='Deed I Do
TTITLE15=Pink Champagne
TTITLE16=Did You Ever
TTITLE17=I Cried For You
TTITLE18=Three Long Years
TTITLE19=I Can't Believe That You're In Love With Me
TTITLE20=Good Rockin' Tonight
TTITLE21=One Evening
TTITLE22=Russian Lullaby
TTITLE23=Travel The Road Of Love
TTITLE24=Pause Track
EXTD=Combines 2 Legendary LPs on 1 CD (plus one bonus track), 20 Bit Remastered
EXTD=Columbia  Legacy 1997 Sony Music Entertainment Inc./Originally Released
EXTD=1958, 1960, Originally Recorded 1959.
EXTT0=
EXTT1=
EXTT2=
EXTT3=
EXTT4=
EXTT5=
EXTT6=
EXTT7=
EXTT8=
EXTT9=
EXTT10=
EXTT11=
EXTT12=
EXTT13=
EXTT14=
EXTT15=
EXTT16=
EXTT17=
EXTT18=
EXTT19=
EXTT20=
EXTT21=
EXTT22=
EXTT23=Bonus Track
EXTT24=
PLAYORDER=
